<svg width="640" height="460" viewBox="0 0 640 460" fill="none" xmlns="http://www.w3.org/2000/svg">
<g clipPath="url(#clip0_1198_90294)">
<rect width="640" height="460" fill="white"/>
<g opacity="0.1">
<rect width="640" height="460" fill="url(#paint0_linear_1198_90294)"/>
<rect width="640" height="460" fill="url(#paint1_linear_1198_90294)" fillOpacity="0.8"/>
</g>
<mask id="mask0_1198_90294" style="mask-type:alpha" maskUnits="userSpaceOnUse" x="0" y="0" width="640" height="460">
<rect width="640" height="460" fill="url(#paint2_linear_1198_90294)"/>
<rect width="640" height="460" fill="url(#paint3_linear_1198_90294)" fillOpacity="0.8"/>
</mask>
<g mask="url(#mask0_1198_90294)">
<g opacity="0.3">
<path fill-rule="evenodd" clip-rule="evenodd" d="M640 39.0001L0 39V38L640 38.0001V39.0001ZM640 89.0001L0 89V88L640 88.0001V89.0001ZM0 139L640 139V138L0 138V139ZM640 189L0 189V188L640 188V189ZM0 239L640 239V238L0 238V239ZM640 289L0 289V288L640 288V289ZM0 339L640 339V338L0 338V339ZM640 389L0 389V388L640 388V389ZM0 439L640 439V438L0 438V439Z" fill="#CDD1E1"/>
</g>
<g opacity="0.3">
<path fill-rule="evenodd" clip-rule="evenodd" d="M46 0L46 460H47L47 0H46ZM96 0L96 460H97L97 0H96ZM146 460L146 0H147L147 460H146ZM196 0L196 460H197L197 0H196ZM246 460L246 0H247L247 460H246ZM296 0L296 460H297L297 0H296ZM346 460L346 0H347L347 460H346ZM396 0L396 460H397L397 0H396ZM446 460L446 0H447L447 460H446ZM496 0L496 460H497L497 0H496ZM546 460L546 0H547L547 460H546ZM596 0V460H597V0H596Z" fill="#CDD1E1"/>
</g>
<rect opacity="0.9" x="497" y="39" width="49" height="49" fill="url(#paint4_linear_1198_90294)"/>
<rect opacity="0.9" x="47" y="389" width="49" height="49" fill="url(#paint5_linear_1198_90294)"/>
</g>
<g filter="url(#filter0_d_1198_90294)">
<rect x="1.5" y="-1.5" width="388" height="263" rx="9.5" transform="matrix(-1 0 0 1 408 80)" fill="url(#paint6_linear_1198_90294)" fillOpacity="0.6"/>
<rect x="1.5" y="-1.5" width="388" height="263" rx="9.5" transform="matrix(-1 0 0 1 408 80)" fill="url(#paint7_linear_1198_90294)" fillOpacity="0.7"/>
<rect x="1.5" y="-1.5" width="388" height="263" rx="9.5" transform="matrix(-1 0 0 1 408 80)" stroke="url(#paint8_linear_1198_90294)" strokeWidth="3"/>
<path d="M405 88C405 83.5817 401.418 80 397 80H28C23.5817 80 20 83.5817 20 88V122H405V88Z" fill="#E2E6F0"/>
<path d="M93.1174 109C88.7639 109 85.2348 105.418 85.2348 101C85.2348 96.5817 88.7639 93 93.1174 93C97.4708 93 101 96.5817 101 101C101 105.418 97.4708 109 93.1174 109Z" fill="#CE268C"/>
<path d="M43.8828 109C39.5294 109 36.0002 105.418 36.0002 101C36.0002 96.5817 39.5294 93 43.8828 93C48.2363 93 51.7654 96.5817 51.7654 101C51.7654 105.418 48.2363 109 43.8828 109Z" fill="#0A598A"/>
<path d="M68.5354 109C64.1819 109 60.6527 105.418 60.6527 101C60.6527 96.5817 64.1819 93 68.5354 93C72.8888 93 76.418 96.5817 76.418 101C76.418 105.418 72.8888 109 68.5354 109Z" fill="#FFAC26"/>
<path d="M305.106 204.164L305.54 203.751H306.139H343.967C350.879 203.751 357.511 200.979 362.403 196.041C367.296 191.102 370.047 184.401 370.047 177.411C370.047 170.42 367.296 163.719 362.403 158.78C357.511 153.842 350.879 151.07 343.967 151.07H285.958C279.049 151.075 272.421 153.848 267.533 158.786C262.644 163.724 259.895 170.423 259.895 177.411C259.895 184.401 262.646 191.102 267.539 196.041C272.431 200.979 279.063 203.751 285.975 203.751H291.655H293.304L293.148 205.393L292.086 216.546L305.106 204.164Z" fill="url(#paint9_linear_1198_90294)" fillOpacity="0.5" stroke="url(#paint10_linear_1198_90294)" strokeWidth="3"/>
<rect x="285.172" y="166.846" width="69.1003" height="3.45502" rx="1.72751" fill="white" fillOpacity="0.9"/>
<rect opacity="0.54" x="277.398" y="175.482" width="76.8741" height="3.45502" rx="1.72751" fill="white" fillOpacity="0.8"/>
<rect opacity="0.4" x="322.312" y="184.121" width="31.9589" height="3.45502" rx="1.72751" fill="white" fillOpacity="0.7"/>
<path d="M224.985 213.371C228.971 215.638 232.469 218.674 235.274 222.301C238.08 225.929 240.138 230.077 241.329 234.506C245.574 249.723 258.581 289.351 258.581 289.351C258.581 289.351 266.022 298.096 266.815 304.569C267.607 311.041 266.022 326.707 263.627 329.631C262.932 330.477 262.04 331.141 261.031 331.564C260.021 331.988 258.923 332.159 257.832 332.062L226.544 329.067L214.215 246.579L224.985 213.371Z" fill="#0554A5"/>
<path d="M121.52 211.927C121.52 211.927 99.1525 218.972 93.5781 225.048L111.895 310.266L111.605 337.169H217.667C217.667 335.848 218.618 247.9 218.618 247.9L224.985 213.389L187.294 206.749L179.87 200.893L137.926 203.015L131.559 209.391L121.52 211.927Z" fill="#0554A5"/>
<g opacity="0.3">
<path d="M130.018 285.855C129.692 285.133 129.226 284.358 128.451 284.19C127.174 283.926 126.32 285.441 125.888 286.674C122.504 296.335 117.814 305.487 111.948 313.876L111.684 326.962C117.848 321.758 123.959 316.184 127.905 309.13C131.85 302.076 133.347 293.226 130.018 285.855Z" fill="black"/>
</g>
<path d="M93.5694 225.047C93.5694 225.047 86.1986 235.095 83.134 241.655C80.0694 248.216 54.7163 303.299 53.1928 308.997C51.6693 314.694 47.7241 332.615 59.3571 336.763H83.1428L107.069 288.399L108.293 232.259L93.5694 225.047Z" fill="#0554A5"/>
<path d="M84.6723 301.829C84.6723 301.829 84.1352 301.362 83.0432 300.737C81.473 299.892 79.7879 299.281 78.0412 298.923C76.8416 298.656 75.6224 298.485 74.3955 298.412C72.9953 298.296 71.5857 298.388 70.2125 298.685C67.0821 299.485 64.2782 301.239 62.19 303.705C60.0676 306.148 58.5154 309.033 57.646 312.15C56.9235 314.697 56.4429 317.306 56.2106 319.944C55.9904 322.198 55.9112 324.03 55.8319 325.298C55.8319 325.888 55.7615 326.372 55.735 326.76C55.7349 326.932 55.7142 327.103 55.6734 327.27C55.6505 327.101 55.6505 326.929 55.6734 326.76C55.6734 326.372 55.6734 325.879 55.6734 325.289C55.6734 324.021 55.7262 322.18 55.9112 319.917C56.0923 317.237 56.5437 314.581 57.2585 311.992C58.12 308.803 59.6949 305.852 61.8642 303.361C64.015 300.82 66.9112 299.021 70.142 298.219C71.5545 297.924 73.0032 297.844 74.4395 297.981C75.6828 298.072 76.9168 298.263 78.1293 298.553C79.8961 298.942 81.5903 299.607 83.1489 300.526C83.5682 300.783 83.9632 301.078 84.3289 301.406C84.5579 301.688 84.6811 301.811 84.6723 301.829Z" fill="#161818"/>
<path d="M73.3672 292.195C73.628 292.12 73.8973 292.079 74.1686 292.072C74.904 292.01 75.6434 292.01 76.3789 292.072C77.4773 292.136 78.5677 292.298 79.6372 292.556C80.9421 292.88 82.213 293.329 83.4327 293.895C84.6403 294.488 85.7901 295.193 86.8672 295.999C87.7378 296.667 88.5455 297.412 89.2801 298.227C89.7827 298.778 90.2419 299.367 90.6538 299.989C90.8201 300.204 90.9563 300.441 91.0589 300.693C90.9885 300.746 90.3368 299.812 89.0511 298.474C88.2937 297.71 87.4782 297.006 86.6118 296.369C85.5444 295.596 84.4131 294.916 83.2302 294.335C82.0378 293.782 80.8005 293.331 79.5316 292.988C78.4906 292.72 77.4308 292.532 76.3613 292.424C74.5296 292.186 73.376 292.257 73.3672 292.195Z" fill="#161818"/>
<path d="M94.9198 289.544C94.551 289.559 94.1818 289.532 93.819 289.464C93.1145 289.367 92.0578 289.271 90.8337 289.174C84.2478 288.683 77.6292 289.475 71.3455 291.507C70.139 291.895 69.1703 292.238 68.5099 292.485C68.1721 292.64 67.8175 292.755 67.4531 292.828C67.7658 292.631 68.096 292.463 68.4394 292.326C69.0823 292.018 70.0422 291.631 71.2398 291.199C77.5257 288.975 84.2266 288.171 90.8601 288.848C92.1282 288.989 93.1497 289.138 93.8454 289.288C94.2116 289.335 94.5717 289.421 94.9198 289.544V289.544Z" fill="#161818"/>
<path d="M162.796 242.474C162.71 242.383 162.631 242.286 162.559 242.183L161.907 241.303L159.512 237.983C157.451 235.085 154.589 231.034 151.207 226.27L151.577 226.217C150.3 229.995 148.882 234.143 147.385 238.546L147.297 238.828L147.051 238.669L146.558 238.352C144.641 237.121 142.897 235.641 141.371 233.949C139.964 232.381 138.722 230.672 137.663 228.85C135.897 225.746 134.527 222.433 133.586 218.988C132.948 216.668 132.434 214.316 132.045 211.943C131.904 211.141 131.79 210.507 131.71 210.023C131.71 209.803 131.622 209.644 131.596 209.53C131.571 209.479 131.554 209.426 131.543 209.371C131.905 210.174 132.134 211.031 132.221 211.907C132.564 213.572 133.04 215.976 133.903 218.873C134.88 222.275 136.267 225.546 138.033 228.613C139.082 230.41 140.313 232.095 141.705 233.641C143.203 235.297 144.918 236.743 146.804 237.939L147.289 238.256L146.954 238.37C148.46 233.967 149.886 229.846 151.181 226.041L151.322 225.645L151.551 225.988C154.871 230.788 157.715 234.865 159.714 237.798L162.021 241.179C162.259 241.558 162.453 241.857 162.611 242.06C162.696 242.186 162.758 242.326 162.796 242.474V242.474Z" fill="#161818"/>
<g opacity="0.3">
<path d="M190.438 283.15C189.478 293.085 191.632 303.071 196.602 311.727C201.534 320.313 208.764 327.965 217.737 332.069C218.028 323.324 217.614 313.021 217.904 304.277L190.438 283.15Z" fill="black"/>
</g>
<path d="M189.417 271.641C189.417 271.641 185.56 272.706 188.448 280.597C191.337 288.487 192.305 288.011 194.225 295.4C196.145 302.788 198.399 309.49 201.772 313.69C205.145 317.891 217.623 326.371 217.623 326.371L228.86 315.804C228.86 315.804 227.002 307.878 227.451 302.551C227.9 297.223 229.018 284.057 228.86 281.777C228.701 279.496 226.289 274.071 226.289 274.071V270.337L220.556 252.54C220.556 252.54 217.341 251.087 216.223 256.23L214.294 250.779C214.294 250.779 211.247 250.286 210.437 256.547C209.627 262.808 211.08 271.517 211.08 271.517L209.477 282.437L207.073 289.817L204.986 290.143C204.986 290.143 201.842 289.262 200.125 283.371C198.408 277.479 193.749 270.355 189.417 271.641Z" fill="#ED9D7A"/>
<path d="M225.136 299.558C225.108 299.425 225.093 299.289 225.092 299.153C225.092 298.844 225.039 298.457 225.004 297.981C224.951 296.898 224.872 295.41 224.766 293.578C224.599 289.739 224.353 284.411 224.071 278.185L224.124 278.308C223.836 278.01 223.472 277.797 223.071 277.693C222.67 277.589 222.248 277.598 221.852 277.718C221.42 277.821 221.013 278.009 220.655 278.27C220.297 278.532 219.994 278.862 219.764 279.242C218.787 280.827 218.734 282.879 218.426 284.869C217.818 289.369 217.237 293.675 216.709 297.559C216.445 299.505 216.163 301.363 215.775 303.08C215.416 304.671 214.951 306.236 214.384 307.765C213.891 309.165 213.45 310.407 213.177 311.578C212.928 312.548 212.806 313.545 212.816 314.546C212.849 315.402 212.997 316.249 213.257 317.065C213.145 316.869 213.054 316.662 212.984 316.448C212.783 315.835 212.665 315.199 212.631 314.555C212.597 313.533 212.698 312.512 212.931 311.517C213.24 310.211 213.623 308.923 214.076 307.66C214.619 306.137 215.063 304.581 215.405 303.001C215.766 301.293 216.031 299.479 216.286 297.497C216.806 293.596 217.378 289.307 217.968 284.807C218.109 283.803 218.223 282.817 218.4 281.822C218.545 280.828 218.88 279.872 219.386 279.004C219.643 278.567 219.985 278.186 220.392 277.883C220.798 277.581 221.262 277.363 221.755 277.243C222.231 277.106 222.735 277.104 223.212 277.236C223.689 277.368 224.12 277.63 224.458 277.991L224.502 278.053V278.167C224.722 284.393 224.899 289.73 225.031 293.561C225.083 295.419 225.119 296.916 225.145 297.964C225.145 298.448 225.145 298.844 225.145 299.144C225.166 299.281 225.163 299.421 225.136 299.558V299.558Z" fill="#D87B61"/>
<path d="M218.996 279.33C218.796 279.016 218.637 278.679 218.521 278.326C218.148 277.386 217.833 276.424 217.578 275.446C217.195 274.002 216.927 272.53 216.777 271.043C216.668 270.166 216.651 269.281 216.724 268.401C216.803 267.414 217.137 266.464 217.693 265.645C218.186 264.917 218.908 264.374 219.745 264.104L219.921 264.051L220.009 264.209C221.638 267.08 223.047 269.616 224.042 271.439L225.196 273.588C225.352 273.842 225.476 274.114 225.566 274.398C225.363 274.179 225.191 273.933 225.055 273.667L223.787 271.58C222.721 269.819 221.259 267.291 219.621 264.429L219.877 264.535C219.14 264.781 218.505 265.264 218.071 265.909C217.564 266.664 217.261 267.538 217.191 268.445C217.107 269.309 217.107 270.179 217.191 271.043C217.325 272.525 217.561 273.996 217.895 275.446C218.177 276.688 218.477 277.665 218.688 278.343C218.818 278.663 218.921 278.993 218.996 279.33V279.33Z" fill="#D87B61"/>
<path d="M216.308 280.807C216.229 280.473 216.194 280.13 216.202 279.786C216.202 279.029 216.132 278.095 216.088 276.994C216.018 274.634 215.938 271.376 215.885 267.774C215.752 264.695 215.802 261.61 216.035 258.537C216.141 257.6 216.342 256.676 216.634 255.78C216.72 255.446 216.86 255.128 217.048 254.838C216.725 256.061 216.493 257.306 216.352 258.563C216.132 260.897 216.352 264.164 216.352 267.765C216.352 271.367 216.431 274.626 216.423 276.986C216.423 278.095 216.423 279.029 216.423 279.786C216.42 280.13 216.382 280.472 216.308 280.807V280.807Z" fill="#D87B61"/>
<path d="M206.808 310.371C206.747 310.319 207.443 309.491 208.314 307.994C208.819 307.114 209.257 306.199 209.626 305.255C210.06 304.094 210.393 302.898 210.622 301.68C210.834 300.458 210.94 299.221 210.939 297.981C210.927 296.966 210.835 295.953 210.666 294.952C210.384 293.243 210.014 292.222 210.093 292.195C210.232 292.411 210.339 292.645 210.41 292.891C210.654 293.542 210.848 294.21 210.991 294.89C211.207 295.904 211.331 296.936 211.361 297.972C211.384 299.24 211.29 300.508 211.08 301.759C210.84 303.005 210.483 304.226 210.014 305.405C209.627 306.365 209.152 307.287 208.596 308.161C208.226 308.75 207.811 309.309 207.354 309.834C207.02 310.204 206.835 310.398 206.808 310.371Z" fill="#D87B61"/>
<path d="M226.544 304.85L236.292 308.24C236.292 308.24 245.6 303.423 252.02 308.24C258.44 313.057 264.023 325.747 262.253 330.881C262.253 330.881 257.85 336.35 254.451 337.151C251.051 337.952 237.983 334.782 232.523 333.628C227.063 332.475 217.676 326.363 217.676 326.363L226.544 304.85Z" fill="#ED9D7A"/>
<path d="M227.734 319.221C227.654 318.934 227.618 318.637 227.628 318.34C227.628 317.68 227.54 316.896 227.487 315.98C227.39 313.99 227.249 311.242 227.214 308.195C227.157 305.595 227.23 302.994 227.434 300.402C227.522 299.407 227.628 298.597 227.734 298.051C227.752 297.748 227.82 297.45 227.936 297.17C228.007 297.17 227.857 298.403 227.76 300.384C227.663 302.366 227.628 305.122 227.672 308.151C227.716 311.181 227.778 313.823 227.813 315.936C227.813 316.931 227.813 317.741 227.813 318.296C227.826 318.606 227.8 318.917 227.734 319.221V319.221Z" fill="#D87B61"/>
<path d="M259.885 307.853C258.875 306.803 257.792 305.826 256.644 304.929C253.825 302.815 250.443 301.583 246.924 301.389C243.406 301.194 239.909 302.046 236.874 303.837C235.64 304.603 234.463 305.456 233.352 306.391C233.581 306.065 233.85 305.769 234.153 305.51C234.942 304.773 235.803 304.118 236.724 303.555C239.785 301.642 243.362 300.722 246.966 300.921C250.569 301.12 254.024 302.427 256.855 304.665C257.712 305.323 258.497 306.07 259.198 306.893C259.465 307.183 259.696 307.506 259.885 307.853V307.853Z" fill="#161818"/>
<path d="M258.633 299.724C257.376 298.816 256.013 298.065 254.573 297.488C251.04 296.235 247.204 296.118 243.601 297.153C241.619 297.71 239.712 298.506 237.921 299.522C236.462 300.36 235.085 301.333 233.808 302.428C232.716 303.361 231.88 304.189 231.299 304.744C231.033 305.064 230.738 305.358 230.418 305.625C230.652 305.275 230.917 304.948 231.211 304.647C231.971 303.789 232.78 302.975 233.632 302.208C236.45 299.633 239.835 297.76 243.513 296.739C247.204 295.669 251.144 295.836 254.732 297.215C255.802 297.64 256.809 298.209 257.726 298.905C257.977 299.092 258.215 299.295 258.439 299.513C258.563 299.628 258.642 299.716 258.633 299.724Z" fill="#161818"/>
<path d="M258.713 292.68C258.713 292.768 256.952 292.248 254.152 291.861C252.493 291.643 250.822 291.537 249.15 291.544C247.107 291.574 245.07 291.759 243.056 292.099C241.037 292.466 239.049 292.99 237.112 293.666C235.538 294.227 234.005 294.894 232.523 295.665C229.987 296.995 228.569 298.069 228.508 297.99C228.81 297.701 229.137 297.439 229.485 297.206C229.811 296.968 230.207 296.678 230.701 296.378C231.194 296.079 231.722 295.709 232.365 295.383C233.842 294.559 235.382 293.853 236.971 293.27C238.917 292.56 240.921 292.015 242.959 291.641C244.996 291.3 247.058 291.126 249.123 291.121C250.814 291.131 252.501 291.273 254.169 291.544C254.891 291.632 255.525 291.799 256.08 291.914C256.635 292.028 257.119 292.16 257.498 292.275C257.917 292.365 258.324 292.501 258.713 292.68V292.68Z" fill="#161818"/>
<path d="M184.002 206.439C184.372 207.261 184.602 208.139 184.68 209.037C184.939 211.563 184.814 214.113 184.31 216.602C183.999 218.387 183.578 220.152 183.051 221.886C182.354 223.905 181.497 225.867 180.489 227.751C178.393 231.793 175.751 236.213 172.686 240.96L172.325 241.506V240.845C172.325 237.737 172.325 234.47 172.325 231.079L172.669 231.238L164.444 237.878L164.514 237.772C162.529 244.197 161.3 250.832 160.851 257.542C160.049 268.259 160.701 278.51 161.203 287.809C161.705 297.108 161.925 305.51 162.216 312.555C162.506 319.6 162.744 325.288 162.955 329.225C163.07 331.171 163.167 332.695 163.228 333.751C163.228 334.253 163.281 334.632 163.308 334.931C163.334 335.231 163.308 335.336 163.308 335.336C163.308 335.336 163.308 335.195 163.246 334.931C163.184 334.667 163.175 334.262 163.123 333.76C163.026 332.73 162.902 331.197 162.77 329.234C162.506 325.297 162.198 319.608 161.89 312.563C161.582 305.518 161.194 297.135 160.78 287.836C160.366 278.536 159.591 268.268 160.401 257.507C160.848 250.763 162.086 244.095 164.091 237.64V237.578H164.144L172.387 230.956L172.73 230.683V231.123C172.73 234.514 172.73 237.781 172.73 240.889L172.369 240.784C178.419 231.405 183.342 223.251 184.099 216.655C184.618 214.187 184.778 211.657 184.575 209.143C184.503 208.486 184.382 207.836 184.214 207.197C184.064 206.668 184.002 206.439 184.002 206.439Z" fill="#161818"/>
<path d="M168.21 320.039H167.893C167.254 320.08 166.656 320.368 166.226 320.842C165.796 321.316 165.567 321.939 165.587 322.579C165.608 323.219 165.876 323.826 166.336 324.271C166.796 324.716 167.411 324.965 168.052 324.965C168.692 324.965 169.307 324.716 169.767 324.271C170.227 323.826 170.496 323.219 170.516 322.579C170.537 321.939 170.308 321.316 169.877 320.842C169.447 320.368 168.849 320.08 168.21 320.039Z" fill="#6FC8FF"/>
<path d="M168.21 286.092H167.893C167.236 286.133 166.62 286.428 166.176 286.916C165.733 287.403 165.496 288.044 165.517 288.702C165.537 289.361 165.814 289.986 166.287 290.444C166.76 290.903 167.393 291.159 168.052 291.159C168.711 291.159 169.344 290.903 169.817 290.444C170.29 289.986 170.566 289.361 170.587 288.702C170.607 288.044 170.371 287.403 169.927 286.916C169.484 286.428 168.868 286.133 168.21 286.092V286.092Z" fill="#6FC8FF"/>
<path d="M167.876 255.737C168.533 255.782 169.182 255.563 169.678 255.129C170.174 254.696 170.478 254.083 170.522 253.426C170.567 252.768 170.348 252.12 169.914 251.624C169.481 251.127 168.868 250.824 168.211 250.779H167.894C167.235 250.779 166.603 251.041 166.138 251.507C165.672 251.972 165.41 252.604 165.41 253.263C165.41 253.921 165.672 254.553 166.138 255.019C166.603 255.484 167.235 255.746 167.894 255.746L167.876 255.737Z" fill="#6FC8FF"/>
<path d="M129.862 166.671C126.78 163.254 123.697 159.802 121.408 155.777C119.118 151.753 117.815 147.068 118.563 142.568C118.995 139.926 120.131 137.381 120.325 134.695C120.571 130.997 119.021 127.131 120.325 123.661C122.359 118.201 129.677 117.365 134.08 113.622C137.523 110.707 139.205 105.978 142.992 103.521C146.303 101.381 150.556 101.425 154.44 101.98C158.324 102.535 162.269 103.521 166.17 102.993C168.961 102.614 171.577 101.496 174.307 100.818C177.037 100.14 180.075 99.937 182.505 101.372C184.936 102.808 186.301 106.233 184.707 108.55C189.233 106.462 194.984 109.994 196.226 114.82C197.467 119.645 194.984 124.867 191.144 128.029C187.305 131.19 182.338 132.696 177.451 133.621C163.581 136.263 148.54 134.757 136.59 127.254" fill="#161818"/>
<path d="M178.61 213.301C177.941 208.017 177.386 203.667 177.351 203.129C177.351 203.129 194.893 199.184 193.924 181.44C193.457 172.871 191.062 155.294 188.702 139.416C187.485 131.185 183.213 123.715 176.735 118.493C170.258 113.271 162.052 110.68 153.75 111.236L152.042 111.351C133.672 113.702 125.376 130.592 128.194 148.892L138.101 210.245C138.101 210.245 142.337 223.815 151.381 226.167L162.829 242.476L164.723 235.431L173.229 228.025C174.858 226.108 176.264 224.014 177.421 221.781C178.722 219.156 179.139 216.182 178.61 213.301V213.301Z" fill="#ED9D7A"/>
<path d="M177.36 202.863C177.36 202.863 166.22 204.528 153.812 197.844C153.812 197.844 160.127 210.234 177.713 207.451L177.36 202.863Z" fill="#D87B61"/>
<path d="M183.003 154.658C183.053 155.314 182.845 155.964 182.425 156.47C182.004 156.976 181.403 157.299 180.749 157.37C180.429 157.418 180.102 157.4 179.789 157.319C179.475 157.238 179.181 157.096 178.924 156.9C178.666 156.704 178.45 156.458 178.289 156.178C178.127 155.897 178.024 155.587 177.984 155.266C177.934 154.606 178.144 153.953 178.568 153.445C178.992 152.937 179.598 152.614 180.256 152.545C180.575 152.5 180.9 152.52 181.212 152.602C181.524 152.685 181.817 152.829 182.072 153.026C182.328 153.222 182.542 153.468 182.702 153.748C182.862 154.029 182.964 154.338 183.003 154.658Z" fill="#161818"/>
<path d="M185.481 148.372C185.191 148.716 183.174 147.43 180.453 147.615C177.732 147.8 175.821 149.306 175.504 148.989C175.354 148.848 175.627 148.231 176.455 147.544C177.585 146.662 178.959 146.148 180.391 146.074C181.805 145.972 183.215 146.324 184.416 147.078C185.296 147.632 185.622 148.214 185.481 148.372Z" fill="#161818"/>
<path d="M157.271 156.499C157.32 157.158 157.11 157.81 156.686 158.316C156.262 158.823 155.656 159.144 154.999 159.211C154.679 159.257 154.353 159.238 154.04 159.157C153.727 159.076 153.433 158.933 153.176 158.737C152.919 158.541 152.703 158.296 152.541 158.016C152.379 157.736 152.275 157.427 152.234 157.106C152.184 156.446 152.394 155.793 152.818 155.285C153.242 154.777 153.848 154.454 154.506 154.385C154.827 154.338 155.154 154.356 155.468 154.437C155.782 154.518 156.076 154.662 156.334 154.859C156.592 155.056 156.807 155.302 156.968 155.584C157.129 155.866 157.232 156.177 157.271 156.499V156.499Z" fill="#161818"/>
<path d="M158.737 150.669C158.447 151.021 156.43 149.727 153.709 149.912C150.988 150.096 149.086 151.602 148.769 151.285C148.61 151.153 148.892 150.537 149.72 149.841C150.842 148.946 152.214 148.42 153.647 148.335C155.064 148.235 156.476 148.586 157.681 149.339C158.561 149.929 158.887 150.475 158.737 150.669Z" fill="#161818"/>
<path d="M169.973 170.202C169.973 170.052 171.628 169.647 174.376 169.11C175.063 168.995 175.714 168.81 175.794 168.326C175.806 167.605 175.597 166.898 175.195 166.3C174.429 164.662 173.627 162.936 172.782 161.14C169.427 153.787 166.943 147.728 167.234 147.596C167.525 147.464 170.501 153.311 173.865 160.664L176.19 165.86C176.685 166.669 176.876 167.627 176.727 168.564C176.642 168.815 176.501 169.043 176.315 169.233C176.129 169.422 175.903 169.566 175.653 169.656C175.275 169.788 174.881 169.871 174.482 169.902C171.708 170.228 169.999 170.36 169.973 170.202Z" fill="#D87B61"/>
<path d="M158.735 139.909C158.515 140.666 155.776 140.499 152.57 141.098C149.365 141.697 146.873 142.745 146.406 142.111C146.195 141.803 146.6 141.072 147.586 140.288C148.923 139.318 150.463 138.666 152.09 138.382C153.717 138.098 155.387 138.19 156.974 138.65C158.189 139.029 158.823 139.583 158.735 139.909Z" fill="#161818"/>
<path d="M183.949 140.552C183.509 141.203 181.598 140.684 179.334 140.807C177.071 140.93 175.195 141.503 174.711 140.886C174.5 140.578 174.755 139.944 175.592 139.301C176.665 138.522 177.946 138.081 179.272 138.033C180.598 137.986 181.907 138.336 183.033 139.037C183.834 139.618 184.143 140.235 183.949 140.552Z" fill="#161818"/>
<path d="M130.556 161.925C130.248 161.811 118.14 159.133 119.337 171.224C120.535 183.315 133.639 179.379 133.621 179.027C133.603 178.675 130.556 161.925 130.556 161.925Z" fill="#ED9D7A"/>
<path d="M128.232 175.055C128.17 175.055 128.03 175.222 127.695 175.416C127.214 175.679 126.65 175.749 126.119 175.609C124.798 175.266 123.521 173.337 123.248 171.206C123.096 170.161 123.186 169.094 123.512 168.089C123.589 167.702 123.76 167.339 124.008 167.033C124.257 166.726 124.576 166.484 124.939 166.328C125.174 166.239 125.433 166.237 125.669 166.32C125.906 166.404 126.106 166.569 126.233 166.786C126.436 167.103 126.383 167.358 126.444 167.367C126.506 167.376 126.682 167.138 126.541 166.654C126.442 166.36 126.247 166.109 125.987 165.94C125.628 165.721 125.198 165.652 124.789 165.746C124.302 165.895 123.861 166.165 123.508 166.532C123.155 166.899 122.902 167.35 122.772 167.842C122.368 168.942 122.232 170.123 122.376 171.286C122.702 173.707 124.137 175.865 125.969 176.199C126.311 176.271 126.666 176.261 127.004 176.171C127.342 176.081 127.654 175.913 127.915 175.68C128.232 175.345 128.276 175.072 128.232 175.055Z" fill="#D87B61"/>
<path d="M187.797 122.895C186.97 127.704 177.23 132.115 169.111 131.878C161.652 131.666 157.962 127.959 152.537 125.335C149.112 123.661 149.112 123.661 144.453 124.454C140.684 125.07 138.738 129.509 136.616 132.688C140.649 141.494 139.02 151.674 137.311 161.176C137.237 162.237 136.813 163.244 136.105 164.038C134.749 165.236 132.582 164.514 131.209 163.29C129.069 161.335 128.091 158.402 127.387 155.61C125.677 149.202 125.258 142.518 126.154 135.946C127.088 129.356 129.932 123.184 134.335 118.193C140.092 112.117 147.988 108.519 156.35 108.162C164.673 107.862 172.878 110.192 179.801 114.82C183.007 116.916 185.966 119.514 187.815 122.895" fill="#151616"/>
<path d="M166.759 154.959C166.671 153.93 166.509 152.909 166.275 151.903C165.554 149.166 163.931 146.752 161.669 145.052C160.01 143.797 158.063 142.978 156.007 142.671C153.95 142.363 151.848 142.576 149.895 143.291C147.589 144.134 145.585 145.642 144.136 147.623C142.574 149.749 141.732 152.317 141.732 154.955C141.732 157.592 142.574 160.16 144.136 162.286C145.597 164.27 147.614 165.778 149.93 166.618C151.567 167.212 153.309 167.457 155.045 167.339C156.782 167.221 158.475 166.743 160.016 165.934C161.557 165.125 162.913 164.004 163.997 162.642C165.08 161.28 165.868 159.707 166.31 158.024C166.545 157.015 166.707 155.991 166.794 154.959C166.804 155.029 166.804 155.1 166.794 155.17C166.794 155.329 166.794 155.531 166.794 155.769C166.798 156.097 166.772 156.424 166.715 156.747C166.673 157.192 166.596 157.634 166.486 158.068C166.206 159.268 165.743 160.417 165.112 161.476C164.291 162.893 163.199 164.135 161.898 165.13C160.322 166.347 158.482 167.176 156.526 167.552C154.273 167.977 151.948 167.794 149.789 167.024C147.383 166.166 145.286 164.612 143.766 162.559C142.142 160.359 141.266 157.697 141.266 154.963C141.266 152.229 142.142 149.567 143.766 147.368C145.268 145.315 147.351 143.76 149.745 142.903C151.903 142.125 154.229 141.94 156.482 142.366C158.44 142.741 160.28 143.574 161.854 144.797C163.157 145.79 164.249 147.032 165.068 148.451C165.702 149.508 166.165 150.658 166.442 151.859C166.552 152.29 166.629 152.729 166.671 153.171C166.728 153.497 166.755 153.827 166.75 154.158C166.75 154.395 166.75 154.589 166.75 154.756C166.763 154.823 166.766 154.891 166.759 154.959V154.959Z" fill="#161818"/>
<path d="M196.91 153.779C196.825 152.774 196.669 151.777 196.443 150.794C195.739 148.129 194.157 145.781 191.952 144.127C190.45 142.986 188.7 142.214 186.845 141.873C184.714 141.489 182.52 141.678 180.487 142.419C179.389 142.806 178.358 143.361 177.431 144.066C176.448 144.782 175.586 145.65 174.877 146.637C173.356 148.706 172.535 151.207 172.535 153.775C172.535 156.343 173.356 158.843 174.877 160.912C175.586 161.899 176.448 162.767 177.431 163.483C178.358 164.188 179.389 164.743 180.487 165.13C182.385 165.827 184.427 166.036 186.427 165.739C188.427 165.442 190.321 164.649 191.935 163.431C194.136 161.77 195.717 159.42 196.426 156.755C196.65 155.775 196.806 154.781 196.893 153.779C196.914 154.04 196.914 154.302 196.893 154.563C196.897 154.882 196.87 155.2 196.813 155.514C196.776 155.948 196.699 156.379 196.584 156.8C196.032 159.11 194.824 161.212 193.106 162.853C191.387 164.493 189.231 165.602 186.897 166.046C184.702 166.468 182.432 166.292 180.328 165.535C177.997 164.694 175.969 163.18 174.498 161.185C172.914 159.041 172.059 156.445 172.059 153.779C172.059 151.113 172.914 148.517 174.498 146.373C175.962 144.371 177.993 142.856 180.328 142.023C182.433 141.268 184.7 141.088 186.897 141.503C188.802 141.869 190.594 142.677 192.128 143.863C194.37 145.573 195.951 148.006 196.602 150.75C196.717 151.17 196.793 151.601 196.831 152.035C196.887 152.349 196.914 152.668 196.91 152.986C196.931 153.25 196.931 153.515 196.91 153.779V153.779Z" fill="#161818"/>
<path d="M172.306 150.986C172.254 151.039 171.963 150.792 171.426 150.546C170.734 150.212 169.974 150.044 169.207 150.052C168.442 150.072 167.693 150.265 167.014 150.616C166.485 150.889 166.204 151.153 166.133 151.1C166.063 151.048 166.301 150.713 166.82 150.343C167.518 149.87 168.338 149.61 169.18 149.594C170.023 149.579 170.852 149.808 171.567 150.255C172.121 150.607 172.342 150.951 172.306 150.986Z" fill="#161818"/>
<path d="M142.26 153.17C140.518 154.753 138.676 156.223 136.748 157.573C134.907 159.043 132.971 160.39 130.953 161.606C132.696 160.024 134.537 158.553 136.466 157.203C138.307 155.733 140.242 154.386 142.26 153.17V153.17Z" fill="#161818"/>
<g opacity="0.3">
<path d="M131.844 210.48C130.62 222.431 135.164 235.05 144.745 242.289C145.503 242.861 146.445 243.425 147.334 243.099C147.927 242.809 148.398 242.32 148.664 241.716C151.357 237.082 152.368 231.66 151.526 226.367C150.011 230.365 148.708 234.293 147.176 238.467C138.819 233.394 133.614 222.615 131.844 210.48Z" fill="black"/>
</g>
<path opacity="0.3" d="M164.293 237.659L171.338 235.087L172.509 246.984C172.509 246.984 180.1 233.15 183.235 226.836C186.37 220.522 184.767 209.391 184.767 209.391C184.767 209.391 185.886 219.077 178.286 231.468L172.544 240.794V231.028L164.293 237.659Z" fill="black"/>
<g opacity="0.3">
<path d="M82.4638 298.122C79.2529 296.755 75.7248 296.31 72.275 296.836C68.6005 297.14 65.0854 298.471 62.1302 300.675C59.277 302.983 57.3484 306.602 57.7271 310.248L58.0793 310.301C60.5363 303.661 65.4149 298.852 71.7114 298.236C78.0079 297.62 84.1458 300.455 88.4433 305.07C88.0206 301.626 85.6429 299.601 82.4638 298.122Z" fill="black"/>
</g>
<g opacity="0.3">
<path d="M260.345 304.912C257.903 302.407 254.713 300.763 251.257 300.227C248.244 299.727 245.158 299.908 242.225 300.757C239.291 301.606 236.585 303.101 234.305 305.132L235.652 304.049C239.053 301.995 242.96 300.934 246.933 300.984C250.926 301.047 254.756 302.576 257.694 305.281C260.336 307.782 261.903 311.164 263.409 314.466C263.652 312.746 263.503 310.992 262.972 309.338C262.441 307.683 261.543 306.17 260.345 304.912V304.912Z" fill="black"/>
</g>
<path d="M215 249.661C215.065 249.329 215.171 249.007 215.317 248.701L216.312 246.139C217.193 243.981 218.338 240.996 219.57 237.685C220.803 234.374 221.869 231.344 222.635 229.151C222.996 228.13 223.295 227.267 223.516 226.562C223.605 226.236 223.735 225.923 223.903 225.629C223.865 225.964 223.791 226.295 223.683 226.615C223.516 227.24 223.251 228.147 222.908 229.257C222.221 231.476 221.2 234.541 219.967 237.843C218.734 241.146 217.51 244.131 216.576 246.262C216.11 247.327 215.696 248.182 215.44 248.772C215.324 249.082 215.176 249.38 215 249.661Z" fill="#161818"/>
<path d="M103.977 250.523C103.853 250.523 102.894 246.358 101.837 241.162C100.78 235.966 100.023 231.739 100.146 231.713C100.269 231.687 101.229 235.896 102.286 241.074C103.343 246.252 104.135 250.497 103.977 250.523Z" fill="#161818"/>
<path d="M102.317 302.911C102.599 303.043 99.0938 275.462 99.0938 275.462C99.0938 275.462 101.304 254.53 102.546 253.561V246.181C102.546 246.181 105.963 244.103 106.887 247.458C106.887 247.458 109.925 244.816 110.41 251.095C110.894 257.374 111.053 263.776 111.053 263.776L117.807 280.675L118.917 281.239C118.917 281.239 120.37 268.03 121.215 266.057C122.06 264.084 122.642 259.373 125.838 260.078C129.035 260.782 129.308 263.441 128.736 267.757C128.163 272.072 127.441 276.563 127.705 279.319C127.969 282.075 129.238 288.249 128.85 293.127C128.463 298.006 125.794 303.149 122.994 306.759C120.194 310.37 114.83 317.838 111.924 320.092C110.982 320.876 102.317 302.911 102.317 302.911Z" fill="#ED9D7A"/>
<path d="M105.722 280.464C105.687 280.072 105.687 279.677 105.722 279.284C105.775 278.404 105.854 277.356 105.942 276.079C106.145 273.375 106.462 269.641 106.823 265.511C107.016 263.459 107.201 261.504 107.369 259.708C107.465 258.88 107.465 258.044 107.369 257.216C107.275 256.507 106.968 255.844 106.488 255.314C106.136 254.934 105.71 254.63 105.236 254.421C104.762 254.212 104.25 254.102 103.732 254.098C103.344 254.122 102.959 254.172 102.578 254.248C102.578 254.248 102.666 254.187 102.851 254.107C103.134 254.003 103.431 253.941 103.732 253.922C104.287 253.891 104.843 253.979 105.361 254.181C105.879 254.383 106.348 254.694 106.735 255.094C107.265 255.663 107.607 256.383 107.712 257.154C107.823 258.014 107.823 258.884 107.712 259.743C107.554 261.504 107.378 263.495 107.201 265.555C106.823 269.677 106.453 273.402 106.162 276.123L105.898 279.293C105.883 279.689 105.824 280.082 105.722 280.464V280.464Z" fill="#D87B61"/>
<path d="M109.358 269.183C108.862 269.851 108.459 270.582 108.161 271.358C107.625 273.3 107.248 275.282 107.033 277.285C106.672 279.645 106.32 281.776 106.038 283.308C105.93 284.151 105.747 284.982 105.492 285.792C105.49 284.944 105.567 284.098 105.721 283.264C105.915 281.714 106.223 279.575 106.602 277.214C106.806 275.175 107.234 273.163 107.879 271.217C108.109 270.628 108.439 270.082 108.856 269.606C109.129 269.298 109.341 269.166 109.358 269.183Z" fill="#D87B61"/>
<path d="M106.875 247.09C106.989 247.373 107.068 247.669 107.113 247.97C107.236 248.534 107.386 249.353 107.553 250.375C107.888 252.409 108.258 255.236 108.495 258.379C108.733 261.523 108.777 264.368 108.742 266.428C108.742 267.467 108.689 268.295 108.654 268.876C108.661 269.174 108.626 269.47 108.548 269.757C108.441 268.651 108.397 267.54 108.416 266.428C108.363 264.368 108.266 261.532 108.037 258.397C107.808 255.262 107.483 252.453 107.236 250.41C107.05 249.311 106.929 248.203 106.875 247.09V247.09Z" fill="#D87B61"/>
<path d="M126.364 272.953C126.029 273.166 125.647 273.295 125.252 273.329C124.856 273.363 124.458 273.3 124.092 273.146C122.797 272.759 122.198 271.764 122.33 271.711C122.943 272.094 123.585 272.426 124.25 272.706C124.947 272.846 125.654 272.929 126.364 272.953V272.953Z" fill="#D87B61"/>
<path d="M102.692 299.479L84.8414 306.981H74.1946C74.1946 306.981 63.6712 310.266 62.0596 320.12C60.4481 329.975 60.2103 335.091 64.8336 336.28C69.4569 337.469 82.5165 337.627 88.9891 335.487C95.4617 333.347 112.414 319.636 112.414 319.636L114.052 309.738L102.692 299.479Z" fill="#ED9D7A"/>
<path d="M106.876 310.37C106.876 310.37 106.674 310.229 106.366 309.912C105.941 309.452 105.555 308.957 105.212 308.433C104.096 306.703 103.256 304.811 102.72 302.823C102.163 300.84 101.794 298.809 101.619 296.756C101.495 295.913 101.471 295.059 101.549 294.211C101.731 295.018 101.861 295.835 101.936 296.659C102.208 298.678 102.617 300.675 103.16 302.639C103.688 304.596 104.469 306.476 105.485 308.23C106.286 309.595 106.938 310.318 106.876 310.37Z" fill="#D87B61"/>
<path d="M114.643 313.506C115.122 312.27 115.465 310.985 115.665 309.675C115.833 308.258 115.761 306.823 115.453 305.43C115.053 303.728 114.31 302.125 113.269 300.719C112.177 299.204 110.962 297.875 109.932 296.598C108.992 295.477 108.183 294.254 107.519 292.952C107.078 292.065 106.781 291.114 106.638 290.134C106.584 289.775 106.584 289.41 106.638 289.051C106.837 290.359 107.248 291.626 107.853 292.802C108.549 294.056 109.369 295.236 110.302 296.325C111.341 297.575 112.574 298.896 113.683 300.446C114.762 301.897 115.522 303.559 115.911 305.325C116.211 306.774 116.25 308.265 116.026 309.728C115.882 310.706 115.607 311.66 115.207 312.563C115.106 312.814 114.986 313.055 114.846 313.286C114.705 313.435 114.705 313.515 114.643 313.506Z" fill="#D87B61"/>
<path d="M87.1314 270.523C85.5449 267.958 84.0928 265.312 82.7811 262.597C81.3283 259.957 80.0115 257.244 78.8359 254.469C80.4187 257.036 81.8706 259.681 83.1862 262.394C85.4758 266.833 87.2371 270.47 87.1314 270.523Z" fill="#6FC8FF"/>
<path d="M116 238.388C116.735 236.133 117.617 233.93 118.642 231.792C119.541 229.591 120.579 227.449 121.75 225.381C121.01 227.633 120.128 229.836 119.109 231.977C118.212 234.179 117.174 236.32 116 238.388V238.388Z" fill="#6FC8FF"/>
<path d="M144.255 259.251C142.798 257.843 141.447 256.33 140.213 254.724C138.864 253.21 137.631 251.597 136.523 249.898C137.983 251.303 139.334 252.816 140.566 254.425C141.923 255.932 143.157 257.546 144.255 259.251V259.251Z" fill="#6FC8FF"/>
<path d="M137.758 287.932C138.641 286.316 139.661 284.779 140.805 283.336C141.826 281.805 142.968 280.359 144.222 279.012C143.336 280.626 142.317 282.164 141.175 283.609C140.158 285.142 139.015 286.588 137.758 287.932V287.932Z" fill="#6FC8FF"/>
<path d="M129.008 328.441C128.592 327.899 128.246 327.308 127.977 326.68C127.396 325.553 126.648 323.976 125.89 322.197C125.133 320.419 124.525 318.789 124.129 317.592C123.868 316.958 123.682 316.296 123.574 315.619C123.932 316.206 124.228 316.829 124.455 317.477L126.348 322.021L128.303 326.539C128.606 327.146 128.842 327.783 129.008 328.441V328.441Z" fill="#6FC8FF"/>
<path d="M153.871 311.226C152.07 311.107 150.282 310.839 148.526 310.424C146.733 310.155 144.966 309.737 143.242 309.174C145.044 309.282 146.833 309.55 148.588 309.975C150.381 310.241 152.149 310.659 153.871 311.226Z" fill="#6FC8FF"/>
<path d="M173.16 273.368C174.744 271.324 176.447 269.374 178.259 267.529C179.963 265.586 181.777 263.743 183.692 262.008C182.112 264.055 180.409 266.005 178.594 267.846C176.895 269.794 175.081 271.638 173.16 273.368Z" fill="#6FC8FF"/>
<path d="M192.57 323.852C192.473 323.932 189.62 320.638 186.212 316.49C182.803 312.343 180.109 308.926 180.206 308.838C180.303 308.75 183.147 312.052 186.564 316.2C189.981 320.347 192.666 323.773 192.57 323.852Z" fill="#6FC8FF"/>
<path d="M72.1089 302.33C72.1794 302.462 69.5727 303.783 66.7371 305.958C63.9015 308.133 61.9289 310.273 61.832 310.176C62.1565 309.625 62.56 309.123 63.0297 308.688C64.0862 307.561 65.235 306.524 66.4641 305.588C67.6911 304.652 68.993 303.819 70.3565 303.096C70.9023 302.761 71.4921 302.503 72.1089 302.33V302.33Z" fill="#6FC8FF"/>
<path d="M79.3653 282.877C78.8099 284.125 78.1157 285.307 77.2958 286.399C76.6065 287.578 75.7852 288.674 74.8477 289.667C75.403 288.418 76.0972 287.237 76.9171 286.144C77.6101 284.968 78.4311 283.872 79.3653 282.877V282.877Z" fill="#6FC8FF"/>
<path d="M95.7162 301.988C94.9472 300.912 94.4351 299.674 94.2191 298.369C93.8532 297.099 93.7779 295.762 93.999 294.459C94.1399 294.459 94.1839 296.22 94.6594 298.263C95.135 300.306 95.8395 301.944 95.7162 301.988Z" fill="#6FC8FF"/>
<path d="M98.1402 241.295C97.0449 241.676 95.9056 241.915 94.7498 242.008C93.612 242.242 92.4487 242.328 91.2889 242.264C92.3838 241.881 93.5233 241.642 94.6793 241.55C95.8164 241.311 96.9804 241.225 98.1402 241.295V241.295Z" fill="#6FC8FF"/>
<path d="M110.414 219.518C109.513 220.282 108.515 220.924 107.447 221.429C106.449 222.064 105.375 222.57 104.25 222.934C105.154 222.169 106.154 221.526 107.227 221.023C108.219 220.385 109.291 219.878 110.414 219.518V219.518Z" fill="#6FC8FF"/>
<path d="M144.944 228.711C143.696 227.452 142.559 226.088 141.545 224.634C140.409 223.257 139.396 221.783 138.516 220.23C139.761 221.492 140.898 222.856 141.915 224.308C143.044 225.689 144.058 227.162 144.944 228.711V228.711Z" fill="#6FC8FF"/>
<path d="M188.773 250.612C186.346 248.22 184.52 245.286 183.445 242.052C183.569 241.99 184.52 244.051 185.99 246.402C187.461 248.754 188.879 250.524 188.773 250.612Z" fill="#6FC8FF"/>
<path d="M205.504 256.15C205.043 257.722 204.436 259.246 203.69 260.703C203.084 262.238 202.335 263.712 201.453 265.106C201.915 263.536 202.523 262.012 203.267 260.554C203.873 259.019 204.622 257.545 205.504 256.15Z" fill="#6FC8FF"/>
<path d="M207.842 233.254C206.263 231.695 204.792 230.029 203.439 228.27C201.954 226.605 200.586 224.839 199.344 222.986C200.938 224.545 202.424 226.21 203.791 227.971C205.263 229.635 206.617 231.4 207.842 233.254V233.254Z" fill="#6FC8FF"/>
<path d="M182.291 214.762C182.008 213.356 181.875 211.924 181.894 210.491C181.757 209.066 181.778 207.631 181.956 206.211C182.235 207.614 182.368 209.043 182.352 210.473C182.479 211.901 182.459 213.338 182.291 214.762Z" fill="#6FC8FF"/>
<path d="M203.129 213.59C201.344 214.056 199.524 214.374 197.686 214.541C195.872 214.86 194.034 215.031 192.191 215.052C193.972 214.578 195.79 214.257 197.625 214.092C199.442 213.768 201.283 213.6 203.129 213.59V213.59Z" fill="#6FC8FF"/>
<path d="M235.938 237.657C234.728 235.675 233.648 233.616 232.706 231.493C231.62 229.411 230.664 227.264 229.844 225.064C231.075 227.066 232.17 229.149 233.12 231.299C234.194 233.356 235.136 235.48 235.938 237.657V237.657Z" fill="#6FC8FF"/>
<path d="M230.41 258.512C230.517 256.822 230.773 255.145 231.176 253.501C231.433 251.826 231.843 250.178 232.4 248.578C232.295 250.268 232.035 251.946 231.625 253.589C231.37 255.263 230.963 256.911 230.41 258.512V258.512Z" fill="#6FC8FF"/>
<path d="M245.637 274.935C244.61 272.74 243.728 270.481 242.995 268.172C242.124 265.913 241.397 263.601 240.82 261.25C241.84 263.447 242.723 265.706 243.462 268.013C244.327 270.274 245.054 272.586 245.637 274.935V274.935Z" fill="#6FC8FF"/>
<path d="M243.513 284.533C241.939 284.309 240.427 283.77 239.066 282.948C237.632 282.254 236.351 281.281 235.297 280.086C235.394 279.98 237.014 281.328 239.286 282.543C241.558 283.758 243.548 284.401 243.513 284.533Z" fill="#6FC8FF"/>
<path d="M263.012 306.435C262.351 305.516 261.818 304.512 261.427 303.45C260.904 302.448 260.516 301.382 260.273 300.279C261.459 302.202 262.38 304.275 263.012 306.444V306.435Z" fill="#6FC8FF"/>
<path d="M147.861 336.974C147.264 334.399 146.968 331.763 146.981 329.119C147.355 330.39 147.586 331.698 147.668 333.02C147.884 334.326 147.949 335.653 147.861 336.974V336.974Z" fill="#6FC8FF"/>
<path d="M207.68 335.459C207.72 334.17 207.912 332.89 208.252 331.646C208.446 330.37 208.791 329.123 209.282 327.93C209.236 329.219 209.041 330.498 208.701 331.743C208.508 333.017 208.165 334.265 207.68 335.459Z" fill="#6FC8FF"/>
<path d="M172.186 182.828C172.351 182.446 174.954 183.552 177.774 182.118C180.593 180.684 181.497 177.751 181.868 177.89C182.239 178.029 182.108 178.728 181.625 179.944C180.988 181.489 179.827 182.759 178.347 183.532C176.919 184.261 175.265 184.404 173.735 183.93C172.617 183.576 172.089 183.002 172.186 182.828Z" fill="#D87B61"/>
</g>
<path d="M265.207 436.126L181.263 324.336L156.418 335.744L239.128 448.743L265.207 436.126Z" fill="#CCD3FA"/>
<path d="M181.084 325.029L157.27 335.956L239.307 448.038L264.355 435.913L181.084 325.029M181.431 323.631L266.07 436.327L238.949 449.458L155.554 335.531L181.431 323.631V323.631Z" fill="#1D1D1B"/>
<path d="M238.152 449.313L155.42 336.281L146.786 342.22L227.49 456.483L238.152 449.313Z" fill="white"/>
<path d="M155.297 337.052L147.572 342.353L227.625 455.71L237.357 449.167L155.297 337.052ZM155.555 335.52L238.949 449.457L227.345 457.287L146.002 342.085L155.555 335.531V335.52Z" fill="#1D1D1B"/>
<path d="M379.914 448.888V436.887H266.192L241.391 448.888H379.914Z" fill="white"/>
<path d="M266.326 437.445L243.835 448.339H379.353V437.456H266.326M266.068 436.338H380.43V449.457H238.946L266.068 436.338V436.338Z" fill="#1D1D1B"/>
<path d="M379.914 456.683V450.006H239.115L229.181 456.683H379.914Z" fill="white"/>
<path d="M239.296 450.575L231.011 456.168H379.355V450.575H239.296ZM238.949 449.457H380.477V457.286H227.344L238.949 449.457V449.457Z" fill="#1D1D1B"/>
<path d="M174.145 337.991C172.665 337.991 171.465 336.794 171.465 335.318C171.465 333.841 172.665 332.645 174.145 332.645C175.625 332.645 176.824 333.841 176.824 335.318C176.824 336.794 175.625 337.991 174.145 337.991Z" fill="white" stroke="#1D1D1B" strokeWidth="0.827762" strokeLinecap="round" strokeLinejoin="round"/>
<path d="M329.945 437.01L321.94 445.823H311.457L319.159 437.01H329.945Z" fill="white" stroke="#1D1D1B" strokeWidth="0.827762" strokeLinecap="round" strokeLinejoin="round"/>
<path d="M368.156 437.01L366.306 445.823H349.701L353.558 438.274C353.747 437.905 354.035 437.596 354.389 437.381C354.743 437.166 355.15 437.053 355.565 437.055L368.156 437.01Z" fill="white" stroke="#1D1D1B" strokeWidth="0.827762" strokeLinecap="round" strokeLinejoin="round"/>
<path d="M314.953 437.01L306.937 445.823H296.465L304.167 437.01H314.953Z" fill="white" stroke="#1D1D1B" strokeWidth="0.827762" strokeLinecap="round" strokeLinejoin="round"/>
<path d="M299.953 437.01L291.948 445.823H281.476L289.178 437.01H299.953Z" fill="white" stroke="#1D1D1B" strokeWidth="0.827762" strokeLinecap="round" strokeLinejoin="round"/>
<path d="M453.515 271.245C441.765 269.445 437.157 272.565 432.145 268.785C424.678 263.192 426.539 249.905 426.808 248.294C428.019 240.465 433.165 229.605 441.193 228.218C449.041 226.865 453.167 235.689 460.904 233.956C466.252 232.759 467.698 227.793 472.003 222.48C482.352 209.685 494.864 201.241 515.08 206.676C517.479 207.314 528.769 212.895 543.894 223.733C554.467 231.294 554.568 232.11 559.501 234.795C572.552 241.875 577.698 239.268 588.26 244.626C601.333 251.169 608.038 262.41 610.852 267.152C617.536 278.646 620.676 291.851 619.878 305.116C619.081 318.38 614.381 331.116 606.367 341.731C601.523 348.05 594.662 356.987 583.36 358.944C581.118 359.336 575.512 360.063 562.001 354.47C547.527 348.486 528.534 340.646 518.869 322.035C511.738 308.356 496.165 313.49 488.597 304.419C485.043 300.158 489.875 291.467 466.823 282.341C454.715 277.598 457.248 271.827 453.515 271.245Z" fill="#0C0C0C" stroke="#1D1D1B" strokeWidth="0.413881" stroke-miterlimit="10"/>
<path d="M326.035 399.467C322.314 399.467 319.297 397.123 319.297 394.232C319.297 391.342 322.314 388.998 326.035 388.998C329.757 388.998 332.773 391.342 332.773 394.232C332.773 397.123 329.757 399.467 326.035 399.467Z" fill="#ED9D7A" stroke="#1D1D1B" strokeWidth="0.413881" strokeLinecap="round" strokeLinejoin="round"/>
<path d="M314.734 400.092C309.78 400.092 305.764 396.973 305.764 393.124C305.764 389.276 309.78 386.156 314.734 386.156C319.687 386.156 323.703 389.276 323.703 393.124C323.703 396.973 319.687 400.092 314.734 400.092Z" fill="#ED9D7A" stroke="#1D1D1B" strokeWidth="0.413881" strokeLinecap="round" strokeLinejoin="round"/>
<path d="M355.759 369.872C353.158 366.516 345.153 365.912 329.254 364.95C319.006 364.335 313.826 364.044 310.923 365.107C299.711 369.201 295.585 380.587 290.741 393.84C289.811 396.413 288.902 399.5 290.438 401.222C292.199 403.191 296.235 402.195 296.448 402.139C304.711 399.992 304.565 387.666 311.696 386.313C312.582 386.145 314.869 386.917 319.399 388.472C327.841 391.346 329.635 392.644 334.187 393.997C340.769 395.943 345.186 397.263 349.133 395.54C357.116 392.04 361.141 376.963 355.759 369.872Z" fill="#ED9D7A" stroke="#1D1D1B" strokeWidth="0.413881" strokeLinecap="round" strokeLinejoin="round"/>
<path d="M340.969 379.088C333.372 379.431 325.761 378.811 318.321 377.243C316.246 376.784 312.434 375.823 310.775 377.713C309.116 379.603 309.889 382.377 310.125 382.981C311.526 386.616 317.872 387.79 318.904 388.293" stroke="#1D1D1B" strokeWidth="0.413881" strokeLinecap="round" strokeLinejoin="round"/>
<path d="M513.645 245.453C513.645 245.453 502.847 219.963 469.144 227.188" stroke="#F558B8" strokeWidth="0.827762" strokeLinecap="round" strokeLinejoin="round"/>
<path d="M502.856 304.006C492.317 299.107 477.966 305.035 470.813 312.305C467.583 315.593 464.837 318.389 464.085 322.762C463.648 325.178 463.996 327.046 462.538 328.903C460.643 331.341 457.818 330.961 455.452 331.979C449.846 334.383 449.185 343.566 447.75 352.267C444.958 369.346 442.435 366.696 440.664 379.312C438.332 395.921 441.505 402.956 438.197 404.511C433.925 406.535 427.613 395.183 407.084 379.614C395.794 371.069 388.024 367.143 379.054 365.477C373.684 364.481 367.573 363.351 361.799 366.092C351.17 371.114 345.564 387.029 348.491 399.332C352.919 417.944 376.767 427.026 396.87 434.687C404.616 437.555 412.541 439.916 420.594 441.756C434.845 445.111 445.631 439.944 452.638 446.979C455.374 449.719 454.623 451.095 456.641 453.69C467.74 468.23 512.857 452.873 544.015 454.45C555.155 455.064 566.326 454.809 577.427 453.69C593.774 452.034 598.09 446.766 599.301 445.089C603.494 439.273 602.519 432.126 601.454 425.113C599.839 414.365 596.173 409.678 586.979 391.302C583.01 383.372 580.117 377.097 574.343 364.559C563.827 341.72 563.401 338.935 558.322 334.462C554.263 330.849 546.19 323.668 534.9 322.472C529.709 321.924 524.719 322.74 519.809 319.116C517.084 317.092 516.86 315.537 513.081 311.734C511.904 310.571 507.419 306.131 502.856 304.006Z" fill="#F558B8" stroke="#1D1D1B" strokeWidth="0.413881" stroke-miterlimit="10"/>
<path d="M486.834 290.214L494.492 304.956C494.492 304.956 484.682 314.865 473.19 312.785L470.05 298.469C470.05 298.469 483.471 286.725 486.834 290.214Z" fill="#ED9D7A" stroke="#1D1D1B" strokeWidth="0.413881" strokeLinecap="round" strokeLinejoin="round"/>
<path d="M450.958 240.947C450.958 240.947 457.124 249.548 473.561 250.376C489.998 251.204 497.386 260.207 497.386 260.207C497.386 260.207 499.472 244.426 513.644 245.455C529.262 246.685 528.645 259.29 528.645 259.29C528.645 259.29 525.461 276.19 512.108 276.19C498.754 276.19 500.705 275.374 500.705 275.374C500.705 275.374 490.536 291.144 488.686 292.151C486.836 293.157 478.315 300.55 461.262 297.888C457.276 296.717 453.649 294.567 450.711 291.637C447.773 288.706 445.618 285.087 444.444 281.111C444.444 281.111 443.423 278.449 437.055 279.467C430.687 280.485 432.57 272.275 435.676 272.085C437.59 272.059 439.486 271.708 441.282 271.045C441.517 270.81 439.544 252.535 441.697 248.844C443.849 245.153 450.958 240.947 450.958 240.947Z" fill="#ED9D7A" stroke="#1D1D1B" strokeWidth="0.413881" strokeLinecap="round" strokeLinejoin="round"/>
<path d="M449.872 264.826C448.906 264.826 448.123 264.044 448.123 263.081C448.123 262.117 448.906 261.336 449.872 261.336C450.838 261.336 451.621 262.117 451.621 263.081C451.621 264.044 450.838 264.826 449.872 264.826Z" fill="#070707"/>
<path d="M461.958 282.129C462.256 283.533 462.264 284.983 461.982 286.39C461.701 287.798 461.136 289.133 460.321 290.316C458.945 292.208 456.97 293.583 454.715 294.219" stroke="#1D1D1B" strokeWidth="0.413881" stroke-miterlimit="10" strokeLinecap="round"/>
<path d="M517.961 252.221C514.327 253.302 511.166 255.576 508.991 258.674C507.432 260.961 506.479 263.604 506.222 266.358" stroke="#1D1D1B" strokeWidth="0.413881" stroke-miterlimit="10" strokeLinecap="round"/>
<path d="M452.641 416.344C452.641 416.344 440.308 403.426 435.184 404.153Z" fill="#FBB348"/>
<path d="M452.641 416.344C452.641 416.344 440.308 403.426 435.184 404.153" stroke="#1D1D1B" strokeWidth="0.413881" strokeLinecap="round" strokeLinejoin="round"/>
<path d="M463.305 369.01V416.612" stroke="#1D1D1B" strokeWidth="0.413881" strokeLinecap="round" strokeLinejoin="round"/>
<path d="M535.833 380.195L545.385 405.998L555.555 415.248" stroke="#1D1D1B" strokeWidth="0.413881" strokeLinecap="round" strokeLinejoin="round"/>
<path d="M577.531 423.121C571.278 418.869 564.09 416.184 556.576 415.291C549.131 414.52 546.216 416.22 536.854 417.338C524.657 418.66 512.329 418.124 500.292 415.75C485.268 413.066 481.445 409.565 472.767 412.059C470.94 412.585 461.185 415.415 459.212 422.304C458.293 425.559 460.042 426.331 462.497 439.931C463.517 445.524 463.708 448.186 462.497 450.993C461.196 454.013 459.133 455.4 459.627 456.731C460.019 457.704 462.407 458.789 468.865 458.14" stroke="#1D1D1B" strokeWidth="0.413881" strokeLinecap="round" strokeLinejoin="round"/>
<path d="M459.423 429.932C456.273 427.281 450.173 425.402 420.495 435.972C410.405 439.573 402.198 442.962 396.558 445.4C395.908 447.056 395.056 449.986 396.457 452.111C397.086 452.972 397.939 453.645 398.924 454.057C404.249 456.294 453.425 454.303 459.322 454.057C461.005 452.187 462.297 450.002 463.125 447.628C463.953 445.255 464.299 442.741 464.143 440.233C463.986 438.555 463.224 433.131 459.423 429.932Z" fill="#ED9D7A" stroke="#1D1D1B" strokeWidth="0.413881" strokeLinecap="round" strokeLinejoin="round"/>
<path d="M432 439.598C424.317 440.699 416.74 442.446 409.352 444.821C406.74 445.682 403.309 446.946 402.625 449.742C402.482 450.571 402.508 451.419 402.701 452.238C402.893 453.056 403.249 453.828 403.746 454.507" stroke="#1D1D1B" strokeWidth="0.413881" strokeLinecap="round" strokeLinejoin="round"/>
<path d="M433.66 444.271C428.416 445.03 423.244 446.223 418.199 447.839C416.427 448.432 414.084 449.282 413.58 451.195C413.477 451.758 413.489 452.337 413.614 452.896C413.74 453.455 413.976 453.983 414.308 454.45" stroke="#1D1D1B" strokeWidth="0.413881" strokeLinecap="round" strokeLinejoin="round"/>
</g>
<defs>
<filter id="filter0_d_1198_90294" x="-13" y="67" width="491" height="366" filterUnits="userSpaceOnUse" color-interpolation-filters="sRGB">
<feFlood flood-opacity="0" result="BackgroundImageFix"/>
<feColorMatrix in="SourceAlpha" type="matrix" values="0 0 0 0 0 0 0 0 0 0 0 0 0 0 0 0 0 0 127 0" result="hardAlpha"/>
<feOffset dx="20" dy="40"/>
<feGaussianBlur stdDeviation="25"/>
<feComposite in2="hardAlpha" operator="out"/>
<feColorMatrix type="matrix" values="0 0 0 0 0.45 0 0 0 0 0.31125 0 0 0 0 0.397969 0 0 0 0.4 0"/>
<feBlend mode="normal" in2="BackgroundImageFix" result="effect1_dropShadow_1198_90294"/>
<feBlend mode="normal" in="SourceGraphic" in2="effect1_dropShadow_1198_90294" result="shape"/>
</filter>
<linearGradient id="paint0_linear_1198_90294" x1="320" y1="0" x2="320" y2="460" gradientUnits="userSpaceOnUse">
<stop stop-color="#E1BE70"/>
<stop offset="1" stop-color="#6F38BD"/>
</linearGradient>
<linearGradient id="paint1_linear_1198_90294" x1="0" y1="0" x2="618.5" y2="460" gradientUnits="userSpaceOnUse">
<stop stop-color="#E08769"/>
<stop offset="1" stop-color="#6E37C1"/>
</linearGradient>
<linearGradient id="paint2_linear_1198_90294" x1="320" y1="0" x2="320" y2="460" gradientUnits="userSpaceOnUse">
<stop stop-color="#E1BE70"/>
<stop offset="1" stop-color="#6F38BD"/>
</linearGradient>
<linearGradient id="paint3_linear_1198_90294" x1="0" y1="0" x2="618.5" y2="460" gradientUnits="userSpaceOnUse">
<stop stop-color="#E08769"/>
<stop offset="1" stop-color="#6E37C1"/>
</linearGradient>
<linearGradient id="paint4_linear_1198_90294" x1="497.48" y1="39.9608" x2="544.559" y2="88" gradientUnits="userSpaceOnUse">
<stop stop-color="#FFFCF8"/>
<stop offset="1" stop-color="#F6F8FA" stop-opacity="0"/>
</linearGradient>
<linearGradient id="paint5_linear_1198_90294" x1="47.4804" y1="389.961" x2="94.5588" y2="438" gradientUnits="userSpaceOnUse">
<stop stop-color="#FFFCF8"/>
<stop offset="1" stop-color="#F6F8FA" stop-opacity="0"/>
</linearGradient>
<linearGradient id="paint6_linear_1198_90294" x1="192.5" y1="0" x2="192.5" y2="260" gradientUnits="userSpaceOnUse">
<stop stop-color="#E1BE70"/>
<stop offset="1" stop-color="#6F38BD"/>
</linearGradient>
<linearGradient id="paint7_linear_1198_90294" x1="0" y1="0" x2="355.271" y2="281.218" gradientUnits="userSpaceOnUse">
<stop stop-color="#E08769"/>
<stop offset="1" stop-color="#6E37C1"/>
</linearGradient>
<linearGradient id="paint8_linear_1198_90294" x1="192.5" y1="0" x2="192.5" y2="260" gradientUnits="userSpaceOnUse">
<stop stop-color="#F9F2F3"/>
<stop offset="1" stop-color="#F5EFF5"/>
</linearGradient>
<linearGradient id="paint9_linear_1198_90294" x1="314.999" y1="141.5" x2="314.971" y2="220.398" gradientUnits="userSpaceOnUse">
<stop stop-color="#C55E72"/>
<stop offset="1" stop-color="#955A77"/>
</linearGradient>
<linearGradient id="paint10_linear_1198_90294" x1="314.971" y1="149.57" x2="314.971" y2="220.398" gradientUnits="userSpaceOnUse">
<stop stop-color="#F7C2C0"/>
<stop offset="1" stop-color="#C5869E"/>
</linearGradient>
<clipPath id="clip0_1198_90294">
<rect width="640" height="460" fill="white"/>
</clipPath>
</defs>
</svg>
